<svg xmlns="http://www.w3.org/2000/svg" id="svg2" width="96" height="124"><style id="style4" type="text/css"><![CDATA[.arrows{fill:#000;stroke:none}.selected>.arrows{fill:#fff}.zoom{fill:none;stroke:#888;stroke-width:2;stroke-linecap:round}]]></style><path d="M0 0h96v124H0z" style="fill:none"/><g id="g7"><path id="path9" d="M13 1.5v13L1.74 8z" class="arrows"/><path id="path11" d="M17.5 3h13L24 14.26z" class="arrows"/><path id="path13" d="M35 1.5v13L46.26 8z" class="arrows"/></g><g id="g15" class="selected" transform="translate(0 16)"><path id="path17" d="M13 1.5v13L1.74 8z" class="arrows"/><path id="path19" d="M17.5 3h13L24 14.26z" class="arrows"/><path id="path21" d="M35 1.5v13L46.26 8z" class="arrows"/></g><g id="g25" style="fill:#888"><path id="path27" d="M2 41v6h42v-6H33.5l-3-3h-15l-3 3z"/><path id="rect29" d="M5 50h36v20H5z"/><rect id="rect31" width="36" height="42" x="5" y="50" rx="4" ry="4"/></g><g id="g33" class="zoom"><circle id="circle35" cx="16" cy="108" r="11.5"/><circle id="circle37" cx="16" cy="108" r="4.3" style="fill:#888;stroke-width:0"/><path id="path39" d="M28 108h3"/><path id="path41" d="M1 108h3"/><path id="path43" d="M16 120v3"/><path id="path45" d="M16 93v3"/></g><g id="g47" class="zoom"><circle id="circle49" cx="48" cy="108" r="15"/><path id="path51" d="M48 101.6v12.8"/><path id="path53" d="M41.6 108h12.8"/></g><g id="g55" class="zoom"><circle id="circle57" cx="80" cy="108" r="15"/><path id="path59" d="M73.6 108h12.8"/></g><path id="Fill-1" d="M53.606 28.448c-.338 0-.675-.134-.933-.399L50.14 25.44a1.387 1.387 0 0 1 0-1.922 1.29 1.29 0 0 1 1.866 0l1.6 1.649 4.99-5.14a1.29 1.29 0 0 1 1.866 0 1.39 1.39 0 0 1 0 1.922l-5.923 6.1a1.3 1.3 0 0 1-.933.399" style="fill:#fff"/></svg>