<svg xmlns="http://www.w3.org/2000/svg" xml:space="preserve" id="Layer_1" x="0" y="0" viewBox="0 0 122.88 122.75"><style>.st2{fill-rule:evenodd;clip-rule:evenodd;fill:#ffd33a}</style><path d="M119.11 3.76c-5.86-5.86-17.37-4.65-31.25 2.05-11.32 5.47-24.42 14.63-37.3 26.51-2.69-10.33-9.2-19.34-21.09-25.16-4.37-2.14-10.03-3.76-15.4-4.58C24.76 8.96 32.3 16.25 34.9 24.29 43.91 52.24 1.85 67.33 7.05 93.93c-.2.76-.38 1.5-.54 2.23-4.55 4.5-9.91 9.79-3.68 15.87l8.71 8.71c5.26 5.01 10.99-.45 14.85-4.31.65-.13 1.3-.28 1.97-.45 33.3 5.77 54.03-63.82 91.95-6.55-.8-4.58-1.9-9.11-3.74-13.56-5.37-12.95-14.87-20.38-26.03-23.54 11.89-12.89 21.06-26 26.53-37.33 6.69-13.87 7.91-25.38 2.04-31.24" style="fill-rule:evenodd;clip-rule:evenodd;fill:#ffb300"/><path d="M50.56 32.32c-2.69-10.33-9.2-19.34-21.09-25.16-4.37-2.14-10.03-3.76-15.4-4.58C24.76 8.96 32.3 16.25 34.9 24.29 43.91 52.24 1.85 67.33 7.05 93.93c-.2.76-.38 1.5-.54 2.23-4.55 4.5-9.91 9.79-3.68 15.87l8.71 8.71c3.18 3.03 6.53 2.23 9.53.28-3.21 1.99-6.1 2.28-8.57.46l30.48-42.06c4.8-2.38 9.94-4.37 15.21-5.83a86 86 0 0 0-15.46 5.95c8.59-16.33 11.09-32.05 7.83-47.22m64.74 60.76c-.1-.2-.2-.4-.31-.6.11.21.21.4.31.6m-.68-1.33c-.05-.1-.11-.2-.16-.3.05.1.11.2.16.3m-.71-1.28c-.08-.14-.17-.28-.25-.42.09.15.17.28.25.42m-.74-1.23c-.1-.16-.2-.31-.3-.47.1.16.2.31.3.47m-.76-1.19-.39-.57c.12.2.26.38.39.57m-.8-1.14-.45-.6zm-.83-1.1c-.14-.18-.29-.36-.44-.54.15.18.3.36.44.54m-.85-1.06c-.12-.15-.25-.29-.37-.43zm-.88-1.01c-.14-.16-.29-.31-.43-.46.14.15.29.3.43.46m-.9-.97-.48-.48zm-.93-.93c-.16-.16-.33-.31-.49-.46zm-.95-.88c-.16-.15-.33-.29-.49-.43zm-.98-.85c-.18-.15-.36-.29-.54-.43.18.14.36.28.54.43m-1-.8c-.18-.14-.36-.27-.54-.41.18.14.36.27.54.41m-1.03-.77c-.17-.12-.35-.24-.52-.36.18.11.35.23.52.36m-1.03-.73c-.19-.13-.38-.25-.57-.37.18.13.38.25.57.37m-1.07-.68c-.19-.12-.38-.23-.58-.35.2.12.39.23.58.35m-2.18-1.26c-.21-.11-.43-.22-.65-.33.22.11.44.22.65.33m-1.12-.57c-.21-.1-.41-.2-.62-.29.2.09.41.19.62.29m-1.14-.53c-.22-.1-.44-.19-.65-.28.21.09.43.18.65.28m-1.15-.5c-.22-.09-.45-.18-.68-.27.22.09.45.17.68.27m-2.35-.89c-.24-.08-.49-.16-.73-.24.24.08.48.16.73.24m-1.21-.39c-.27-.08-.53-.16-.8-.23.27.07.54.15.8.23m-1.2-.35c-.29-.08-.57-.15-.86-.23.28.07.57.15.86.23m-1.23-.32c-.28-.07-.56-.13-.85-.2.29.06.57.13.85.2m-1.24-.29-.87-.18c.29.06.58.11.87.18m-1.25-.26-.87-.15zm-1.26-.22c-.3-.05-.61-.09-.92-.14.31.05.61.09.92.14m-1.27-.19-.95-.12zm-1.28-.16c-.33-.04-.65-.07-.98-.1.33.04.65.07.98.1M82 71.08c-.33-.03-.67-.05-1-.07.33.02.66.04 1 .07m-1.3-.1c-.33-.02-.67-.04-1.01-.05.34.02.67.03 1.01.05m-1.31-.06-1.02-.03q.51 0 1.02.03m-1.31-.04c-.35-.01-.69-.01-1.04-.01.35 0 .7.01 1.04.01m-1.31-.01c-.36 0-.72.01-1.08.02.36-.01.72-.01 1.08-.02m-1.32.03c-.39.01-.79.03-1.18.05.39-.03.79-.04 1.18-.05m-2.66.13-1.1.09c.37-.04.74-.07 1.1-.09m-1.33.1c-.38.03-.77.07-1.15.11.38-.03.77-.07 1.15-.11m-1.32.14c-.4.04-.79.09-1.19.14.4-.05.79-.1 1.19-.14m-1.34.16c-.41.05-.82.11-1.23.17.42-.06.82-.12 1.23-.17m-1.33.18c-.42.06-.83.13-1.25.2.42-.07.84-.14 1.25-.2m-1.33.21c-.43.07-.86.15-1.29.23.43-.08.86-.16 1.29-.23m-1.33.23c-.43.08-.86.16-1.28.25.43-.08.85-.17 1.28-.25m-1.33.27c-.43.09-.85.18-1.27.27.42-.1.84-.19 1.27-.27m-2.67.59c-.43.1-.86.21-1.3.32.44-.11.87-.22 1.3-.32m-1.31.33c-.44.11-.87.23-1.31.35.44-.12.87-.24 1.31-.35" style="fill-rule:evenodd;clip-rule:evenodd;fill:#5e990b"/><path d="M90.12 43.38c-3.11 3.46-6.44 7.03-9.95 10.66-1.61-1.51-3.23-3.1-4.84-4.73-2.17-2.2-4.31-4.47-6.33-6.72 3.66-3.53 7.25-6.87 10.73-10 2.01 2.3 4.15 4.6 6.32 6.82 1.35 1.36 2.71 2.69 4.07 3.97M101.84 29.61c-2.61 3.28-5.54 6.77-8.74 10.41-1.29-1.21-2.58-2.47-3.85-3.77a159 159 0 0 1-6.17-6.64c3.63-3.18 7.1-6.09 10.37-8.68 1.61 1.89 3.29 3.72 5.02 5.47 1.1 1.1 2.22 2.18 3.37 3.21M99.24 16.5c9.06-6.67 15.21-10.25 16.32-9.15 1.1 1.1-2.47 7.26-9.15 16.32q-.87 1.17-1.8 2.4a88 88 0 0 1-7.61-7.9c.76-.58 1.5-1.14 2.24-1.67M74.55 18.77c4.06-2.77 8.01-5.18 11.79-7.19 1.35 1.99 2.78 3.95 4.26 5.86-3.29 2.62-6.79 5.55-10.44 8.74-2.12-2.59-4.03-5.1-5.61-7.41M89.16 67.23c-1.2 1.33-2.42 2.66-3.68 3.99-5.15-.85-10.55-.89-16-.23 2.78-2.64 5.61-5.39 8.45-8.23.82-.82 1.63-1.64 2.44-2.45 3.14 2.77 6.15 5.17 8.79 6.92M101.2 52.42c-2.74 3.75-5.77 7.57-9.05 11.4-2.54-1.62-5.51-3.97-8.64-6.73 3.51-3.63 6.84-7.21 9.96-10.68 2.66 2.32 5.28 4.38 7.73 6.01M111.13 36.83c-2.06 3.82-4.51 7.83-7.33 11.93-2.31-1.53-4.8-3.48-7.35-5.7 3.22-3.67 6.18-7.19 8.82-10.51 1.9 1.54 3.85 2.97 5.86 4.28M118.38 12.56c.58 5.03-1.3 12.07-5.21 20.24a66 66 0 0 1-5.15-3.79c.7-.91 1.36-1.8 2-2.67 3.94-5.33 6.8-10.02 8.36-13.78M90.38 9.54c8.08-3.83 15.04-5.65 20.01-5.05-3.76 1.56-8.47 4.42-13.83 8.37-.79.58-1.59 1.18-2.41 1.81a99 99 0 0 1-3.77-5.13M77.04 57.25c-.76.77-1.52 1.54-2.29 2.31-3.12 3.12-6.21 6.12-9.25 8.99-1.8-1.7-3.61-3.48-5.39-5.3-1.9-1.94-3.79-3.96-5.61-6 2.82-2.99 5.78-6.03 8.85-9.1.82-.82 1.64-1.63 2.46-2.44 2.04 2.26 4.18 4.54 6.36 6.75 1.6 1.65 3.24 3.26 4.87 4.79M59.24 30.56c3.91-3.35 7.82-6.43 11.65-9.21 1.67 2.43 3.69 5.08 5.93 7.8-3.5 3.14-7.11 6.5-10.78 10.04-2.66-3.1-5-6.06-6.8-8.63M51.58 37.47c1.42-1.35 2.84-2.66 4.27-3.93 1.89 2.65 4.28 5.66 6.96 8.79-.89.87-1.77 1.75-2.66 2.64-3.05 3.05-5.99 6.07-8.8 9.05.83-5.62.97-11.21.23-16.55M56.52 73.86c-4.5 1.44-8.91 3.22-13.22 5.37 2.58-5.28 4.73-10.92 6.27-16.66.61-.67 1.23-1.34 1.85-2.02 1.74 1.93 3.59 3.89 5.48 5.84 1.76 1.81 3.55 3.57 5.31 5.23-.33.3-.66.6-.98.9-1.58.39-3.15.84-4.71 1.34" class="st2"/><path d="M27.74 116.13c.2-.05.41-.1.62-.15 33.3 5.77 54.03-63.82 91.95-6.55-5.86-42.73-43.67-46.69-77.33-30.01L12.5 121.48c3.75 2.76 8.44.67 13.78-4.83z" style="fill-rule:evenodd;clip-rule:evenodd;fill:#537918"/></svg>