<svg xmlns="http://www.w3.org/2000/svg" xml:space="preserve" width="320" height="320" viewBox="0 0 320 320"><defs><clipPath id="a" clipPathUnits="userSpaceOnUse"><path d="M0 256h256V0H0z"/></clipPath></defs><g clip-path="url(#a)" transform="matrix(1.25 0 0 -1.25 0 320)"><path d="M0 0c-4.898-.001-10.01 1.398-15.192 4.16l-49.906 26.587-49.904-26.587C-120.186 1.4-125.297 0-130.194 0c-6.873 0-12.998 2.764-17.245 7.786-3.47 4.102-7.184 11.5-5.175 23.451l9.457 56.224-40.116 38.783c-8.466 8.185-11.671 18.084-8.792 27.16 2.878 9.074 11.202 15.318 22.836 17.126l55.889 8.695 24.975 49.906c5.263 10.514 13.743 16.545 23.267 16.545s18.005-6.029 23.267-16.543l24.977-49.908 55.888-8.695c11.634-1.808 19.957-8.052 22.835-17.126 2.879-9.076-.326-18.975-8.79-27.159L12.961 87.461l9.457-56.224c2.009-11.951-1.705-19.348-5.174-23.45C12.997 2.766 6.873 0 0 0" style="fill:#543224;fill-opacity:1;fill-rule:nonzero;stroke:none" transform="translate(193.293 4.498)"/><path d="m0 0 28.312-56.571 63.252-9.84c12.616-1.963 15.401-10.748 6.223-19.623l-45.584-44.068 10.718-63.722c2.116-12.591-5.301-17.932-16.57-11.929l-56.698 30.205-56.698-30.205c-11.268-6.003-18.686-.662-16.569 11.929l10.718 63.722-45.584 44.068c-9.179 8.875-6.393 17.66 6.222 19.623l63.254 9.84 28.31 56.57C-14.979 11.416-5.714 11.416 0 0" style="fill:#ffce00;fill-opacity:1;fill-rule:nonzero;stroke:none" transform="translate(138.542 227.164)"/><path d="m0 0 10.718-63.722" style="fill:#ffdd15;fill-opacity:1;fill-rule:nonzero;stroke:none" transform="translate(190.745 97.061)"/><path d="m0 0 39.932 38.605c-63.209 5.434-117.768-6.993-160.899-24.608L-106.488 0l-11.474-68.222c-.385-2.291 1.871-3.944 3.943-2.839l60.775 32.376L7.531-71.061c2.072-1.105 4.328.546 3.943 2.839z" style="fill:#cc8a1f;fill-opacity:1;fill-rule:nonzero;stroke:none" transform="translate(181.44 100.123)"/><path d="m0 0 14.479-13.997-3.986-23.697C36.872-26.105 79.781-13.615 126.251-8.89l34.648 33.497C97.69 30.041 43.131 17.615 0 0" style="fill:#f4ad21;fill-opacity:1;fill-rule:nonzero;stroke:none" transform="translate(60.472 114.12)"/><path d="M0 0c43.131 17.615 97.69 30.041 160.9 24.608l8.931 8.634c1.755 1.697.883 4.449-1.529 4.824l-67.671 10.527-3.503 7C55.219 51.745 18.996 39.746-21.334 20.625z" style="fill:#fff100;fill-opacity:1;fill-rule:nonzero;stroke:none" transform="translate(60.472 114.12)"/><path d="M0 0c0-3.392-2.952-6.141-6.592-6.141-3.641 0-6.592 2.749-6.592 6.141s2.951 6.141 6.592 6.141S0 3.392 0 0" style="fill:#fff100;fill-opacity:1;fill-rule:nonzero;stroke:none" transform="translate(70.263 28.711)"/><path d="M0 0c-3.077 0-21.635-42.157-31.547-56.979-.392.055-.79.092-1.198.092-4.228 0-7.702-3.002-8.103-6.844-13.891-3.875-47.008-7.593-62.574-10.799.237-5.002 47.003-.273 65.736 4.038a8.48 8.48 0 0 1 4.941-1.566c4.497 0 8.143 3.395 8.143 7.585a7.1 7.1 0 0 1-.619 2.899C-13.845-43.942 4.792.397 0 0" style="fill:#fff;fill-opacity:1;fill-rule:nonzero;stroke:none" transform="translate(126.396 228.82)"/></g></svg>